<svg width="2400" height="3100" viewBox="0 0 2400 3100" fill="none" xmlns="http://www.w3.org/2000/svg">
<path d="M1200 0L2400 500V1500C2400 2200 1950 2800 1200 3100C450 2800 0 2200 0 1500V500L1200 0Z" fill="#0052CC"/>
<path d="M961.937 808.368C966.515 815.622 970.413 818.54 967.382 827.344C958.281 853.766 938.976 887.259 931.507 913.36C900.546 1021.56 915.222 1125.65 968.37 1223.91C1007.34 1295.94 1066.71 1341.34 1129.75 1391.04C1208.96 1453.48 1290.9 1513.19 1370.52 1574.88C1504.05 1678.35 1612.87 1753.38 1640.22 1931.36C1649.73 1994.64 1645.11 2059.25 1626.68 2120.53C1592.86 2231.89 1516.05 2325.17 1413.25 2379.74C1391.1 2391.22 1336.75 2399.97 1325.18 2410.52C1344.12 2420.91 1395.03 2402.55 1413.3 2397.86C1544.18 2364.29 1660.6 2277.2 1723.41 2157.07C1727.71 2148.84 1735.56 2150.88 1744 2148.29C1732.57 2217.62 1658.14 2323.13 1608.5 2372.34C1509.22 2470.5 1375.07 2525.31 1235.45 2524.75C1091.64 2523.94 954.183 2465.4 853.945 2362.28C661.765 2165.66 702.956 1912.88 705.21 1662.95C704.253 1640.55 703.691 1608.77 700.812 1587.31C796.011 1684.75 890.558 1782.84 984.441 1881.56C1000.3 1898.09 1081.96 1980.97 1088.55 1992.38C1140.37 2026.62 1302.32 2203.12 1336.09 2258.14C1415.73 2223.29 1458.94 2181.86 1496.75 2104.8C1568.22 1891.73 1468.23 1803.59 1311.61 1684.53L1101.94 1523.98C1040.91 1477.04 981.503 1434.75 929.706 1377.04C787.034 1218.06 795.226 949.434 961.937 808.368Z" fill="#C1D9F4"/>
<path d="M700.812 1587.3C796.011 1684.75 890.558 1782.84 984.441 1881.56C1000.3 1898.09 1081.96 1980.97 1088.55 1992.38C1140.37 2026.62 1302.32 2203.12 1336.09 2258.14C1415.73 2223.29 1458.94 2181.86 1496.75 2104.8C1501.33 2107.34 1502.59 2110.48 1505.32 2114.96C1501.51 2156.6 1473.2 2202.66 1449.32 2236.28C1330.13 2404.07 1107.36 2417.88 946.878 2302.41C782.093 2183.84 770.406 2013.52 742.113 1829.45C733.148 1771.1 715.066 1721.2 705.21 1662.95C704.253 1640.55 703.691 1608.77 700.812 1587.3Z" fill="white"/>
<path d="M949.475 1991.64C990.385 1991.23 1049.07 1988.96 1088.55 1992.37C1140.37 2026.62 1302.31 2203.12 1336.09 2258.14C1313.25 2265.83 1283.62 2272.47 1259.66 2274.39C1184.62 2280.49 1110.21 2256.76 1052.57 2208.34C985.295 2150.96 956.506 2078.06 949.475 1991.64Z" fill="#0052CC"/>
<path d="M1234.48 700C1403.97 708.945 1537.3 785.695 1608.9 943.734C1620.51 971.598 1627.11 989.617 1634.03 1019.29C1765.6 1080.98 1782.67 1208.64 1701 1320.61C1576.49 1487.18 1273.52 1317.28 1397.85 1093.78C1389.47 1054.31 1380.32 1026.53 1350.84 995.906C1321.04 964.855 1279.78 947.406 1236.74 947.637C1171.72 947.73 1114.56 987.383 1088.81 1046.5C1073.94 1080.64 1074.94 1109.62 1075.25 1145.71C1109.17 1232.31 1174.63 1266.12 1242.78 1321.94C1364.66 1421.76 1539.37 1532.31 1641.61 1648.07C1763.63 1786.21 1796.7 1972.52 1744 2148.29C1735.56 2150.88 1727.71 2148.84 1723.41 2157.07C1660.6 2277.2 1544.18 2364.29 1413.3 2397.86C1395.03 2402.55 1344.12 2420.91 1325.18 2410.52C1336.75 2399.97 1391.1 2391.21 1413.25 2379.73C1516.05 2325.17 1592.86 2231.89 1626.68 2120.53C1645.11 2059.25 1649.73 1994.64 1640.22 1931.36C1612.87 1753.38 1504.06 1678.35 1370.52 1574.88C1290.9 1513.19 1208.96 1453.48 1129.75 1391.04C1066.71 1341.34 1007.34 1295.94 968.371 1223.91C915.223 1125.65 900.547 1021.56 931.508 913.359C938.977 887.258 958.282 853.766 967.383 827.344C970.414 818.539 966.516 815.621 961.938 808.367C1055.17 731.621 1114.33 708.895 1234.48 700Z" fill="white"/>
<path d="M1075.25 1145.71C1069.76 1132.32 1054.76 1118.65 1053.09 1112.43C970.702 806.051 1385.49 725.273 1495.03 987.176C1499.21 997.047 1502.97 1007.1 1506.28 1017.3C1474.77 1040.92 1451.68 1057.8 1434.01 1093.1C1363.43 1234.11 1509.32 1402.58 1657.98 1327.44C1675.75 1318.46 1682.57 1314.68 1701 1320.61C1576.49 1487.18 1273.52 1317.28 1397.85 1093.78C1389.47 1054.31 1380.32 1026.53 1350.84 995.906C1321.03 964.855 1279.78 947.406 1236.74 947.636C1171.72 947.73 1114.55 987.383 1088.81 1046.5C1073.94 1080.64 1074.94 1109.62 1075.25 1145.71Z" fill="#C1D9F4"/>
<path d="M1541.75 1096.42C1595.6 1085.32 1648.24 1120.04 1659.25 1173.92C1670.26 1227.8 1635.46 1280.38 1581.56 1291.3C1527.79 1302.2 1475.35 1267.49 1464.37 1213.74C1453.38 1159.98 1488.01 1107.49 1541.75 1096.42Z" fill="#0052CC"/>
</svg>
